<?xml version="1.0" encoding="utf-8"?><svg xmlns="http://www.w3.org/2000/svg" xmlns:xlink="http://www.w3.org/1999/xlink"><symbol viewBox="0 0 11 13" id="location" xmlns="http://www.w3.org/2000/svg"><path d="M5.2 2.791a2.413 2.413 0 00-2.41 2.411c0 1.33 1.081 2.41 2.41 2.41 1.33 0 2.411-1.08 2.411-2.41s-1.081-2.41-2.41-2.41zm0 3.807a1.397 1.397 0 01.001-2.792 1.396 1.396 0 010 2.792z"/><path d="M5.202 0A5.208 5.208 0 000 5.202v.144c0 1.45.832 3.14 2.472 5.024a21.376 21.376 0 002.41 2.357l.32.258.319-.258c.05-.04 1.222-.992 2.41-2.357 1.641-1.883 2.473-3.574 2.473-5.024v-.144A5.208 5.208 0 005.202 0zm4.187 5.346c0 2.451-3.159 5.419-4.187 6.32-1.029-.902-4.187-3.869-4.187-6.32v-.144a4.192 4.192 0 014.187-4.187 4.192 4.192 0 014.187 4.187v.144z"/></symbol><symbol viewBox="0 0 46 46" id="next-arrow" xmlns="http://www.w3.org/2000/svg"><path d="M29 23l-7.2-8-1.8 2 5.4 6-5.4 6 1.8 2 7.2-8z"/><circle cx="23" cy="23" r="22.5"/></symbol><symbol viewBox="0 0 46 46" id="next-arrow-gray" xmlns="http://www.w3.org/2000/svg"><path d="M29 23l-7.2-8-1.8 2 5.4 6-5.4 6 1.8 2 7.2-8z"/><circle cx="23" cy="23" r="22.5"/></symbol><symbol viewBox="0 0 118 95" id="why-1" xmlns="http://www.w3.org/2000/svg"><path d="M68.21 37.05a1.01 1.01 0 01-.592-.19l-10.363-7.368a1.01 1.01 0 01-.236-1.412 1.02 1.02 0 011.419-.234l9.661 6.872 15.148-15.026c.36-.36.929-.395 1.331-.09l10.926 8.256 7.381-8.85c.36-.43 1-.483 1.431-.131.433.358.492.993.132 1.424l-8.003 9.594a1.022 1.022 0 01-1.398.16l-10.995-8.308-15.13 15.009a1.01 1.01 0 01-.713.293z"/><path d="M103.668 26.43a1.014 1.014 0 01-1.017-1.012v-4.755h-4.779a1.014 1.014 0 01-1.016-1.012c0-.558.455-1.011 1.016-1.011h5.796c.561 0 1.016.453 1.016 1.011v5.767c0 .558-.455 1.011-1.016 1.011zM91.146 45.559c-.539 0-.986-.42-1.014-.961-.03-.557.4-1.034.963-1.06l4.769-.243-.244-4.75c-.03-.557.4-1.035.963-1.061.614-.063 1.04.4 1.066.959l.296 5.76a.998.998 0 01-.26.728c-.18.199-.433.318-.703.332l-5.785.296h-.051z"/><path d="M58.08 52.47c-.28 0-.557-.115-.758-.338a1.008 1.008 0 01.081-1.428L66 43.054c.364-.32.903-.342 1.287-.055l5.541 4.138 12.79-12.981c.378-.38.99-.405 1.397-.05l9.376 8.167c.423.368.466 1.005.096 1.426a1.016 1.016 0 01-1.433.095l-8.655-7.538-12.743 12.932c-.36.362-.931.4-1.336.101l-5.586-4.171-7.976 7.1a1.027 1.027 0 01-.677.252zm58.906-38.579H45.63a1.014 1.014 0 01-1.016-1.011c0-.559.455-1.012 1.016-1.012h70.339V7.435H91.036c-.384 0-.736-.216-.908-.558L87.814 2.27H57.932l-2.313 4.607a1.018 1.018 0 01-.909.558h-9.082a1.014 1.014 0 01-1.016-1.011c0-.559.455-1.012 1.016-1.012h8.454L56.395.805c.173-.342.525-.558.909-.558H88.44c.384 0 .735.216.908.558l2.313 4.607h25.322c.561 0 1.016.453 1.016 1.012v6.456a1.01 1.01 0 01-1.014 1.011z"/><path d="M113.093 60.38H50.817v-2.023h61.26V18.046h2.032V59.37c0 .559-.455 1.012-1.016 1.012z"/><path d="M73.89 59.37h-2.032v6.455h2.032V59.37z"/><path d="M72.874 77.167c-3.423 0-6.206-2.77-6.206-6.177 0-3.407 2.783-6.176 6.206-6.176 3.423 0 6.208 2.77 6.208 6.177 0 3.407-2.787 6.176-6.208 6.176zm0-10.33c-2.3 0-4.173 1.863-4.173 4.153 0 2.29 1.872 4.154 4.173 4.154 2.303 0 4.175-1.863 4.175-4.154 0-2.29-1.874-4.153-4.175-4.153zM6.206 45.514a1.014 1.014 0 01-1.017-1.011v-3.875c0-.558.456-1.011 1.017-1.011.56 0 1.016.453 1.016 1.011v3.875c0 .56-.455 1.011-1.016 1.011zM24.37 59.719H6.204a1.014 1.014 0 01-1.016-1.012v-5.165c0-.558.455-1.011 1.016-1.011.56 0 1.016.453 1.016 1.011v4.154h16.134v-19.65c0-.865-.71-1.57-1.58-1.57h-2.593a1.014 1.014 0 01-1.017-1.011c0-.559.456-1.012 1.017-1.012h2.593c1.992 0 3.612 1.613 3.612 3.593v20.661c0 .559-.453 1.012-1.016 1.012z"/><path d="M19.18 41.64H1.016A1.014 1.014 0 010 40.628v-2.581c0-1.981 1.62-3.594 3.61-3.594h18.164c.561 0 1.017.453 1.017 1.012 0 .558-.456 1.011-1.017 1.011-.87 0-1.577.707-1.577 1.57v2.582c0 .56-.455 1.012-1.017 1.012zM2.034 39.617h16.131v-1.57c0-.563.13-1.097.364-1.57H3.612c-.87 0-1.577.706-1.577 1.57v1.57h-.002zm5.271 14.937H5.108a2.51 2.51 0 01-2.512-2.5v-4.77a2.508 2.508 0 012.512-2.498h2.197a2.508 2.508 0 012.513 2.498v4.77a2.51 2.51 0 01-2.513 2.5zm-2.197-7.747a.478.478 0 00-.48.475v4.77a.48.48 0 00.48.477h2.197a.48.48 0 00.48-.478v-4.769a.478.478 0 00-.48-.475H5.108zm27.547-26.704c-5.264 0-8.8-4.039-8.8-10.052S27.392 0 32.656 0c5.265 0 8.802 4.038 8.802 10.051s-3.54 10.052-8.802 10.052zm0-18.08c-4.994 0-6.767 4.326-6.767 8.028 0 3.703 1.773 8.028 6.767 8.028 4.997 0 6.77-4.325 6.77-8.028 0-3.702-1.773-8.028-6.77-8.028zM44.33 95a1.014 1.014 0 01-1.015-1.012V39.752a1.015 1.015 0 012.032 0v54.236c0 .56-.455 1.012-1.016 1.012zm-15.568 0c-.03 0-.059-.002-.09-.004a1.013 1.013 0 01-.924-1.095l2.596-29.7a1.012 1.012 0 011.012-.925h2.594c.528 0 .967.4 1.012.925l2.594 29.7a1.013 1.013 0 01-.925 1.095c-.555.036-1.053-.364-1.1-.92L33.02 65.298h-.732l-2.514 28.776c-.045.528-.49.925-1.01.925zm-7.785 0a1.016 1.016 0 01-1.016-1.014l.04-35.23c0-.556.456-1.01 1.017-1.01h.002c.559 0 1.014.456 1.014 1.014l-.04 35.23c0 .559-.454 1.01-1.017 1.01z"/><path d="M48.87 66.59h-.646a1.014 1.014 0 01-1.017-1.012c0-.558.456-1.011 1.017-1.011h.646a.93.93 0 00.93-.929V34.502c0-4.915-3.873-8.943-8.74-9.22l-7.496 14.921a1.019 1.019 0 01-1.817 0l-7.493-14.917c-4.911.312-8.747 4.328-8.747 9.216 0 .558-.455 1.011-1.016 1.011a1.014 1.014 0 01-1.016-1.011c0-6.207 5.073-11.257 11.307-11.257.385 0 .824.216.997.558l6.874 13.687 6.877-13.687c.172-.342.524-.558.908-.558 6.32 0 11.394 5.05 11.394 11.257v29.136a2.957 2.957 0 01-2.962 2.952z"/><path d="M33.952 25.266h-2.594a1.014 1.014 0 01-1.016-1.012c0-.558.455-1.011 1.016-1.011h2.594c.56 0 1.016.453 1.016 1.011 0 .559-.453 1.012-1.016 1.012z"/><path d="M32.655 39.473a1.014 1.014 0 01-1.016-1.012V24.256c0-.558.455-1.011 1.016-1.011.561 0 1.016.453 1.016 1.011v14.205c0 .559-.455 1.012-1.016 1.012z"/></symbol><symbol viewBox="0 0 108 95" id="why-2" xmlns="http://www.w3.org/2000/svg"><path d="M53.552 56.246a1.241 1.241 0 01-1.242-1.24V36.572a1.836 1.836 0 00-1.835-1.832h-10.77c-1.01 0-1.834.823-1.834 1.832v9.217a1.241 1.241 0 01-2.483 0V36.57a4.32 4.32 0 014.318-4.312h10.77a4.32 4.32 0 014.318 4.312v18.436c0 .684-.557 1.24-1.242 1.24z"/><path d="M70.475 59.319a1.241 1.241 0 01-1.242-1.24V21.208a1.836 1.836 0 00-1.835-1.833h-10.77c-1.01 0-1.834.823-1.834 1.833v33.796a1.241 1.241 0 01-2.484 0V21.208a4.32 4.32 0 014.319-4.312h10.769a4.32 4.32 0 014.318 4.312v36.87a1.24 1.24 0 01-1.241 1.24z"/><path d="M70.475 59.319a1.241 1.241 0 01-1.242-1.24V4.312A4.319 4.319 0 0173.55 0h10.77a4.32 4.32 0 014.316 4.312v52.232a1.241 1.241 0 01-2.484 0V4.312A1.834 1.834 0 0084.32 2.48H73.549c-1.01 0-1.833.823-1.833 1.832v53.77c0 .684-.556 1.237-1.241 1.237z"/><path d="M81.244 76.22c-.258 0-.509-.08-.722-.23L59.623 61.081l-13.16 7.3a1.25 1.25 0 01-1.691-.481 1.24 1.24 0 01.481-1.686L59.1 58.533a1.25 1.25 0 011.326.075l20.494 14.62 23.905-35.808a1.245 1.245 0 011.721-.345 1.24 1.24 0 01.345 1.718L82.275 75.667c-.186.28-.477.471-.81.53-.07.016-.146.023-.22.023z"/><path d="M106.754 48.5c-.636 0-1.18-.486-1.234-1.133l-.676-7.714-7.03 2.289a1.24 1.24 0 11-.772-2.358l8.517-2.772a1.252 1.252 0 011.07.146c.318.208.519.55.554.927l.812 9.269a1.238 1.238 0 01-1.127 1.341c-.04.006-.077.006-.114.006zM39.137 88.588c-.31 0-.613-.1-.83-.313L22.913 72.902a1.237 1.237 0 01-.362-.878l-.003-23.156c0-.685.556-1.24 1.242-1.24h.007c13.079 0 23.652 10.563 23.652 23.55 0 6.423-2.54 12.426-7.159 16.904l-.19.169a1.547 1.547 0 01-.962.337zm-14.11-17.08L39.19 85.653c3.75-3.965 5.774-9.053 5.774-14.473 0-11.23-8.843-20.437-19.935-21.042v21.371z"/><path d="M23.724 95C10.643 95 0 84.374 0 71.31a23.616 23.616 0 0116.48-22.562 1.238 1.238 0 11.757 2.36 21.146 21.146 0 00-14.75 20.203c0 11.693 9.528 21.21 21.24 21.21 3.134 0 6.151-.665 8.965-1.976a1.244 1.244 0 011.649.6 1.24 1.24 0 01-.601 1.649A23.55 23.55 0 0123.724 95z"/></symbol><symbol viewBox="0 0 110 98" id="why-3" xmlns="http://www.w3.org/2000/svg"><path d="M7.066 52.327c-.6 0-1.088-.486-1.088-1.084v-4.469c0-.598.488-1.084 1.088-1.084.6 0 1.088.486 1.088 1.084v4.469c0 .598-.488 1.084-1.088 1.084zm20.922 16.382H7.066c-.6 0-1.088-.486-1.088-1.084v-5.958c0-.598.488-1.084 1.088-1.084.6 0 1.088.486 1.088 1.084v4.874H26.9V43.795a1.9 1.9 0 00-1.901-1.895h-2.99c-.6 0-1.087-.485-1.087-1.084 0-.598.487-1.084 1.087-1.084H25c2.247 0 4.076 1.824 4.076 4.063v23.83c0 .598-.487 1.084-1.087 1.084z"/><path d="M22.01 47.858H1.087c-.6 0-1.088-.485-1.088-1.084v-2.979c0-2.24 1.83-4.063 4.077-4.063h20.922c.6 0 1.087.486 1.087 1.084 0 .599-.487 1.084-1.087 1.084a1.9 1.9 0 00-1.902 1.895v2.98c0 .6-.487 1.083-1.088 1.083zM2.174 45.69h18.747v-1.895c0-.683.17-1.329.472-1.895H4.077a1.9 1.9 0 00-1.902 1.895v1.895zm6.158 17.061H5.8a2.81 2.81 0 01-2.811-2.801v-5.5a2.81 2.81 0 012.81-2.802h2.533a2.81 2.81 0 012.81 2.801v5.5a2.809 2.809 0 01-2.81 2.802zM5.8 53.816a.635.635 0 00-.635.633v5.5c0 .35.284.634.635.634h2.532c.35 0 .635-.284.635-.633v-5.5a.635.635 0 00-.635-.634H5.8zm31.73-30.797c-6.014 0-10.056-4.625-10.056-11.51C27.474 4.621 31.516 0 37.53 0s10.055 4.625 10.055 11.51c0 6.886-4.042 11.509-10.055 11.509zm0-20.85c-5.816 0-7.88 5.031-7.88 9.341s2.062 9.343 7.88 9.343c5.816 0 7.879-5.032 7.879-9.343 0-4.31-2.065-9.342-7.88-9.342zm13.448 77.443c-.6 0-1.088-.485-1.088-1.084V45.764c0-.598.487-1.084 1.088-1.084.6 0 1.088.486 1.088 1.084v32.764c0 .599-.488 1.084-1.088 1.084zM24.08 97.484c-.002 0-.002 0 0 0a1.087 1.087 0 01-1.087-1.086l.045-28.717c0-.598.488-1.082 1.088-1.082h.002c.6 0 1.088.488 1.086 1.087l-.046 28.716a1.086 1.086 0 01-1.088 1.082z"/><path d="M56.206 76.633h-.744c-.6 0-1.088-.485-1.088-1.084 0-.598.487-1.084 1.088-1.084h.744c.637 0 1.157-.518 1.157-1.153V39.706c0-5.728-4.527-10.422-10.2-10.714l-8.66 17.256c-.37.735-1.577.735-1.946 0L27.9 28.994c-5.723.338-10.202 5.013-10.202 10.71 0 .599-.488 1.084-1.088 1.084-.6 0-1.088-.485-1.088-1.084 0-7.111 5.806-12.898 12.944-12.898.411 0 .888.232 1.073.599l7.992 15.93 7.993-15.93a1.09 1.09 0 01.972-.599c7.236 0 13.042 5.787 13.042 12.898V73.31a3.33 3.33 0 01-3.332 3.323z"/><path d="M39.024 28.977h-2.99c-.6 0-1.087-.486-1.087-1.085 0-.598.487-1.084 1.087-1.084h2.99c.6 0 1.087.486 1.087 1.084 0 .599-.487 1.085-1.087 1.085z"/><path d="M37.53 45.359a1.087 1.087 0 01-1.089-1.084V27.892c0-.598.488-1.084 1.088-1.084.6 0 1.088.486 1.088 1.084v16.383c0 .598-.487 1.084-1.088 1.084zm0 52.125a1.087 1.087 0 01-1.089-1.084V81.507c0-.598.488-1.084 1.088-1.084.6 0 1.088.486 1.088 1.084V96.4c0 .598-.487 1.084-1.088 1.084zM79.884 27.892h-2.175V53.21h2.175V27.892zm-8.968 14.893h-2.175v2.979h2.175v-2.979z"/><path d="M70.916 38.317h-2.175v-9.34h-4.89c-.427 0-.814-.25-.99-.636a1.078 1.078 0 01.172-1.162l10.46-11.916c.413-.472 1.222-.472 1.637 0L85.592 27.18a1.082 1.082 0 01-.818 1.798h-8.967v-2.169h6.57l-8.064-9.184-8.065 9.184h3.58c.601 0 1.088.486 1.088 1.084v10.425zm31.789 23.423a1.086 1.086 0 01-1.088-1.083v-44.68c0-.599.487-1.084 1.088-1.084.6 0 1.087.485 1.087 1.084v44.677c0 .601-.485 1.087-1.087 1.087zm-7.878-23.423h-2.175v2.979h2.175v-2.98zm0 7.445h-2.175v2.979h2.175v-2.98zm0-14.892h-2.175v2.978h2.175V30.87z"/><path d="M94.827 26.4h-2.175v-9.34h-4.89c-.427 0-.814-.249-.99-.634a1.079 1.079 0 01.171-1.163L97.403 3.35c.413-.473 1.223-.473 1.638 0l10.462 11.913a1.082 1.082 0 01-.818 1.798h-8.967v-2.168h6.57l-8.065-9.184-8.062 9.184h3.58c.601 0 1.088.485 1.088 1.084V26.4h-.002zm-.157 71.372c-7.616 0-15.328-2.04-15.328-5.938 0-.599.487-1.084 1.088-1.084.6 0 1.087.486 1.087 1.084 0 1.537 5.124 3.77 13.153 3.77 8.03 0 13.153-2.233 13.153-3.77 0-.599.488-1.084 1.088-1.084.6 0 1.088.486 1.088 1.084-.002 3.898-7.712 5.938-15.329 5.938z"/><path d="M94.67 91.856c-7.616 0-15.328-2.04-15.328-5.939 0-.598.488-1.084 1.088-1.084.6 0 1.088.486 1.088 1.084 0 1.537 5.123 3.77 13.153 3.77 8.029 0 13.153-2.233 13.153-3.77 0-.598.487-1.084 1.087-1.084.601 0 1.088.486 1.088 1.084-.002 3.898-7.712 5.939-15.328 5.939z"/><path d="M94.67 97.924c-7.616 0-15.328-2.04-15.328-5.938v-6.069c0-.598.488-1.084 1.088-1.084.6 0 1.088.486 1.088 1.084v6.069c0 1.537 5.123 3.77 13.153 3.77 8.029 0 13.153-2.233 13.153-3.77v-6.069c0-.598.487-1.084 1.087-1.084.601 0 1.088.486 1.088 1.084v6.069c-.002 3.898-7.712 5.938-15.328 5.938z"/><path d="M94.67 85.85c-7.616 0-15.328-2.04-15.328-5.938a1.087 1.087 0 012.175 0c0 1.537 5.124 3.77 13.153 3.77 8.03 0 13.153-2.233 13.153-3.77a1.087 1.087 0 012.176 0c-.002 3.898-7.712 5.938-15.329 5.938z"/><path d="M94.67 91.918c-7.616 0-15.328-2.04-15.328-5.938v-6.068a1.087 1.087 0 012.175 0v6.068c0 1.537 5.124 3.77 13.153 3.77 8.03 0 13.153-2.233 13.153-3.77v-6.068a1.087 1.087 0 012.176 0v6.068c-.002 3.898-7.712 5.938-15.329 5.938z"/><path d="M94.671 79.933c-7.616 0-15.328-2.04-15.328-5.938 0-7.799 30.657-7.799 30.657 0-.003 3.898-7.712 5.938-15.329 5.938zm0-9.71c-8.027 0-13.153 2.233-13.153 3.77s5.123 3.77 13.153 3.77c8.03 0 13.153-2.233 13.153-3.77-.002-1.537-5.125-3.77-13.153-3.77z"/><path d="M94.67 86c-7.616 0-15.328-2.04-15.328-5.939v-6.068c0-.599.487-1.084 1.088-1.084.6 0 1.087.485 1.087 1.084v6.068c0 1.537 5.124 3.77 13.153 3.77 8.03 0 13.153-2.233 13.153-3.77v-6.068c0-.599.488-1.084 1.088-1.084.6 0 1.088.485 1.088 1.084v6.068c-.002 3.9-7.712 5.939-15.329 5.939zM66.187 97.848c-7.616 0-15.329-2.04-15.329-5.938 0-.598.488-1.084 1.088-1.084.6 0 1.088.486 1.088 1.084 0 1.537 5.123 3.77 13.153 3.77 8.03 0 13.153-2.233 13.153-3.77 0-.598.487-1.084 1.087-1.084.601 0 1.088.486 1.088 1.084.002 3.898-7.71 5.938-15.328 5.938z"/><path d="M66.187 91.931c-7.616 0-15.328-2.04-15.328-5.938 0-7.798 30.657-7.798 30.657 0 .002 3.898-7.71 5.939-15.329 5.939zm0-9.708c-8.027 0-13.153 2.233-13.153 3.77s5.123 3.77 13.153 3.77c8.03 0 13.153-2.233 13.153-3.77.002-1.537-5.123-3.77-13.153-3.77z"/><path d="M66.187 98c-7.616 0-15.329-2.04-15.329-5.938v-6.069c0-.598.488-1.084 1.088-1.084.6 0 1.088.486 1.088 1.084v6.069c0 1.537 5.123 3.77 13.153 3.77 8.03 0 13.153-2.233 13.153-3.77v-6.069c0-.598.487-1.084 1.087-1.084.601 0 1.088.486 1.088 1.084v6.069C81.517 95.96 73.805 98 66.187 98z"/></symbol></svg>