<svg width="11" height="13" fill="none" xmlns="http://www.w3.org/2000/svg"><path d="M5.2 2.791a2.413 2.413 0 00-2.41 2.411c0 1.33 1.081 2.41 2.41 2.41 1.33 0 2.411-1.08 2.411-2.41s-1.081-2.41-2.41-2.41zm0 3.807a1.397 1.397 0 01.001-2.792 1.396 1.396 0 010 2.792z" fill="#fff"/><path d="M5.202 0A5.208 5.208 0 000 5.202v.144c0 1.45.832 3.14 2.472 5.024a21.376 21.376 0 002.41 2.357l.32.258.319-.258c.05-.04 1.222-.992 2.41-2.357 1.641-1.883 2.473-3.574 2.473-5.024v-.144A5.208 5.208 0 005.202 0zm4.187 5.346c0 2.451-3.159 5.419-4.187 6.32-1.029-.902-4.187-3.869-4.187-6.32v-.144a4.192 4.192 0 014.187-4.187 4.192 4.192 0 014.187 4.187v.144z" fill="#fff"/></svg>