<svg width="110" height="98" fill="none" xmlns="http://www.w3.org/2000/svg"><path d="M7.066 52.327c-.6 0-1.088-.486-1.088-1.084v-4.469c0-.598.488-1.084 1.088-1.084.6 0 1.088.486 1.088 1.084v4.469c0 .598-.488 1.084-1.088 1.084zm20.922 16.382H7.066c-.6 0-1.088-.486-1.088-1.084v-5.958c0-.598.488-1.084 1.088-1.084.6 0 1.088.486 1.088 1.084v4.874H26.9V43.795a1.9 1.9 0 00-1.901-1.895h-2.99c-.6 0-1.087-.485-1.087-1.084 0-.598.487-1.084 1.087-1.084H25c2.247 0 4.076 1.824 4.076 4.063v23.83c0 .598-.487 1.084-1.087 1.084z" fill="#20201D"/><path d="M22.01 47.858H1.087c-.6 0-1.088-.485-1.088-1.084v-2.979c0-2.24 1.83-4.063 4.077-4.063h20.922c.6 0 1.087.486 1.087 1.084 0 .599-.487 1.084-1.087 1.084a1.9 1.9 0 00-1.902 1.895v2.98c0 .6-.487 1.083-1.088 1.083zM2.174 45.69h18.747v-1.895c0-.683.17-1.329.472-1.895H4.077a1.9 1.9 0 00-1.902 1.895v1.895zm6.158 17.061H5.8a2.81 2.81 0 01-2.811-2.801v-5.5a2.81 2.81 0 012.81-2.802h2.533a2.81 2.81 0 012.81 2.801v5.5a2.809 2.809 0 01-2.81 2.802zM5.8 53.816a.635.635 0 00-.635.633v5.5c0 .35.284.634.635.634h2.532c.35 0 .635-.284.635-.633v-5.5a.635.635 0 00-.635-.634H5.8zm31.73-30.797c-6.014 0-10.056-4.625-10.056-11.51C27.474 4.621 31.516 0 37.53 0s10.055 4.625 10.055 11.51c0 6.886-4.042 11.509-10.055 11.509zm0-20.85c-5.816 0-7.88 5.031-7.88 9.341s2.062 9.343 7.88 9.343c5.816 0 7.879-5.032 7.879-9.343 0-4.31-2.065-9.342-7.88-9.342zm13.448 77.443c-.6 0-1.088-.485-1.088-1.084V45.764c0-.598.487-1.084 1.088-1.084.6 0 1.088.486 1.088 1.084v32.764c0 .599-.488 1.084-1.088 1.084zM24.08 97.484c-.002 0-.002 0 0 0a1.087 1.087 0 01-1.087-1.086l.045-28.717c0-.598.488-1.082 1.088-1.082h.002c.6 0 1.088.488 1.086 1.087l-.046 28.716a1.086 1.086 0 01-1.088 1.082z" fill="#20201D"/><path d="M56.206 76.633h-.744c-.6 0-1.088-.485-1.088-1.084 0-.598.487-1.084 1.088-1.084h.744c.637 0 1.157-.518 1.157-1.153V39.706c0-5.728-4.527-10.422-10.2-10.714l-8.66 17.256c-.37.735-1.577.735-1.946 0L27.9 28.994c-5.723.338-10.202 5.013-10.202 10.71 0 .599-.488 1.084-1.088 1.084-.6 0-1.088-.485-1.088-1.084 0-7.111 5.806-12.898 12.944-12.898.411 0 .888.232 1.073.599l7.992 15.93 7.993-15.93a1.09 1.09 0 01.972-.599c7.236 0 13.042 5.787 13.042 12.898V73.31a3.33 3.33 0 01-3.332 3.323z" fill="#20201D"/><path d="M39.024 28.977h-2.99c-.6 0-1.087-.486-1.087-1.085 0-.598.487-1.084 1.087-1.084h2.99c.6 0 1.087.486 1.087 1.084 0 .599-.487 1.085-1.087 1.085z" fill="#20201D"/><path d="M37.53 45.359a1.087 1.087 0 01-1.089-1.084V27.892c0-.598.488-1.084 1.088-1.084.6 0 1.088.486 1.088 1.084v16.383c0 .598-.487 1.084-1.088 1.084zm0 52.125a1.087 1.087 0 01-1.089-1.084V81.507c0-.598.488-1.084 1.088-1.084.6 0 1.088.486 1.088 1.084V96.4c0 .598-.487 1.084-1.088 1.084z" fill="#20201D"/><path d="M79.884 27.892h-2.175V53.21h2.175V27.892zm-8.968 14.893h-2.175v2.979h2.175v-2.979z" fill="#009456"/><path d="M70.916 38.317h-2.175v-9.34h-4.89c-.427 0-.814-.25-.99-.636a1.078 1.078 0 01.172-1.162l10.46-11.916c.413-.472 1.222-.472 1.637 0L85.592 27.18a1.082 1.082 0 01-.818 1.798h-8.967v-2.169h6.57l-8.064-9.184-8.065 9.184h3.58c.601 0 1.088.486 1.088 1.084v10.425zm31.789 23.423a1.086 1.086 0 01-1.088-1.083v-44.68c0-.599.487-1.084 1.088-1.084.6 0 1.087.485 1.087 1.084v44.677c0 .601-.485 1.087-1.087 1.087zm-7.878-23.423h-2.175v2.979h2.175v-2.98zm0 7.445h-2.175v2.979h2.175v-2.98zm0-14.892h-2.175v2.978h2.175V30.87z" fill="#009456"/><path d="M94.827 26.4h-2.175v-9.34h-4.89c-.427 0-.814-.249-.99-.634a1.079 1.079 0 01.171-1.163L97.403 3.35c.413-.473 1.223-.473 1.638 0l10.462 11.913a1.082 1.082 0 01-.818 1.798h-8.967v-2.168h6.57l-8.065-9.184-8.062 9.184h3.58c.601 0 1.088.485 1.088 1.084V26.4h-.002zm-.157 71.372c-7.616 0-15.328-2.04-15.328-5.938 0-.599.487-1.084 1.088-1.084.6 0 1.087.486 1.087 1.084 0 1.537 5.124 3.77 13.153 3.77 8.03 0 13.153-2.233 13.153-3.77 0-.599.488-1.084 1.088-1.084.6 0 1.088.486 1.088 1.084-.002 3.898-7.712 5.938-15.329 5.938z" fill="#009456"/><path d="M94.67 91.856c-7.616 0-15.328-2.04-15.328-5.939 0-.598.488-1.084 1.088-1.084.6 0 1.088.486 1.088 1.084 0 1.537 5.123 3.77 13.153 3.77 8.029 0 13.153-2.233 13.153-3.77 0-.598.487-1.084 1.087-1.084.601 0 1.088.486 1.088 1.084-.002 3.898-7.712 5.939-15.328 5.939z" fill="#009456"/><path d="M94.67 97.924c-7.616 0-15.328-2.04-15.328-5.938v-6.069c0-.598.488-1.084 1.088-1.084.6 0 1.088.486 1.088 1.084v6.069c0 1.537 5.123 3.77 13.153 3.77 8.029 0 13.153-2.233 13.153-3.77v-6.069c0-.598.487-1.084 1.087-1.084.601 0 1.088.486 1.088 1.084v6.069c-.002 3.898-7.712 5.938-15.328 5.938z" fill="#009456"/><path d="M94.67 85.85c-7.616 0-15.328-2.04-15.328-5.938a1.087 1.087 0 012.175 0c0 1.537 5.124 3.77 13.153 3.77 8.03 0 13.153-2.233 13.153-3.77a1.087 1.087 0 012.176 0c-.002 3.898-7.712 5.938-15.329 5.938z" fill="#009456"/><path d="M94.67 91.918c-7.616 0-15.328-2.04-15.328-5.938v-6.068a1.087 1.087 0 012.175 0v6.068c0 1.537 5.124 3.77 13.153 3.77 8.03 0 13.153-2.233 13.153-3.77v-6.068a1.087 1.087 0 012.176 0v6.068c-.002 3.898-7.712 5.938-15.329 5.938z" fill="#009456"/><path d="M94.671 79.933c-7.616 0-15.328-2.04-15.328-5.938 0-7.799 30.657-7.799 30.657 0-.003 3.898-7.712 5.938-15.329 5.938zm0-9.71c-8.027 0-13.153 2.233-13.153 3.77s5.123 3.77 13.153 3.77c8.03 0 13.153-2.233 13.153-3.77-.002-1.537-5.125-3.77-13.153-3.77z" fill="#009456"/><path d="M94.67 86c-7.616 0-15.328-2.04-15.328-5.939v-6.068c0-.599.487-1.084 1.088-1.084.6 0 1.087.485 1.087 1.084v6.068c0 1.537 5.124 3.77 13.153 3.77 8.03 0 13.153-2.233 13.153-3.77v-6.068c0-.599.488-1.084 1.088-1.084.6 0 1.088.485 1.088 1.084v6.068c-.002 3.9-7.712 5.939-15.329 5.939zM66.187 97.848c-7.616 0-15.329-2.04-15.329-5.938 0-.598.488-1.084 1.088-1.084.6 0 1.088.486 1.088 1.084 0 1.537 5.123 3.77 13.153 3.77 8.03 0 13.153-2.233 13.153-3.77 0-.598.487-1.084 1.087-1.084.601 0 1.088.486 1.088 1.084.002 3.898-7.71 5.938-15.328 5.938z" fill="#009456"/><path d="M66.187 91.931c-7.616 0-15.328-2.04-15.328-5.938 0-7.798 30.657-7.798 30.657 0 .002 3.898-7.71 5.939-15.329 5.939zm0-9.708c-8.027 0-13.153 2.233-13.153 3.77s5.123 3.77 13.153 3.77c8.03 0 13.153-2.233 13.153-3.77.002-1.537-5.123-3.77-13.153-3.77z" fill="#009456"/><path d="M66.187 98c-7.616 0-15.329-2.04-15.329-5.938v-6.069c0-.598.488-1.084 1.088-1.084.6 0 1.088.486 1.088 1.084v6.069c0 1.537 5.123 3.77 13.153 3.77 8.03 0 13.153-2.233 13.153-3.77v-6.069c0-.598.487-1.084 1.087-1.084.601 0 1.088.486 1.088 1.084v6.069C81.517 95.96 73.805 98 66.187 98z" fill="#009456"/></svg>