<svg width="108" height="95" fill="none" xmlns="http://www.w3.org/2000/svg"><path d="M53.552 56.246a1.241 1.241 0 01-1.242-1.24V36.572a1.836 1.836 0 00-1.835-1.832h-10.77c-1.01 0-1.834.823-1.834 1.832v9.217a1.241 1.241 0 01-2.483 0V36.57a4.32 4.32 0 014.318-4.312h10.77a4.32 4.32 0 014.318 4.312v18.436c0 .684-.557 1.24-1.242 1.24z" fill="#20201D"/><path d="M70.475 59.319a1.241 1.241 0 01-1.242-1.24V21.208a1.836 1.836 0 00-1.835-1.833h-10.77c-1.01 0-1.834.823-1.834 1.833v33.796a1.241 1.241 0 01-2.484 0V21.208a4.32 4.32 0 014.319-4.312h10.769a4.32 4.32 0 014.318 4.312v36.87a1.24 1.24 0 01-1.241 1.24z" fill="#20201D"/><path d="M70.475 59.319a1.241 1.241 0 01-1.242-1.24V4.312A4.319 4.319 0 0173.55 0h10.77a4.32 4.32 0 014.316 4.312v52.232a1.241 1.241 0 01-2.484 0V4.312A1.834 1.834 0 0084.32 2.48H73.549c-1.01 0-1.833.823-1.833 1.832v53.77c0 .684-.556 1.237-1.241 1.237z" fill="#20201D"/><path d="M81.244 76.22c-.258 0-.509-.08-.722-.23L59.623 61.081l-13.16 7.3a1.25 1.25 0 01-1.691-.481 1.24 1.24 0 01.481-1.686L59.1 58.533a1.25 1.25 0 011.326.075l20.494 14.62 23.905-35.808a1.245 1.245 0 011.721-.345 1.24 1.24 0 01.345 1.718L82.275 75.667c-.186.28-.477.471-.81.53-.07.016-.146.023-.22.023z" fill="#009456"/><path d="M106.754 48.5c-.636 0-1.18-.486-1.234-1.133l-.676-7.714-7.03 2.289a1.24 1.24 0 11-.772-2.358l8.517-2.772a1.252 1.252 0 011.07.146c.318.208.519.55.554.927l.812 9.269a1.238 1.238 0 01-1.127 1.341c-.04.006-.077.006-.114.006zM39.137 88.588c-.31 0-.613-.1-.83-.313L22.913 72.902a1.237 1.237 0 01-.362-.878l-.003-23.156c0-.685.556-1.24 1.242-1.24h.007c13.079 0 23.652 10.563 23.652 23.55 0 6.423-2.54 12.426-7.159 16.904l-.19.169a1.547 1.547 0 01-.962.337zm-14.11-17.08L39.19 85.653c3.75-3.965 5.774-9.053 5.774-14.473 0-11.23-8.843-20.437-19.935-21.042v21.371z" fill="#009456"/><path d="M23.724 95C10.643 95 0 84.374 0 71.31a23.616 23.616 0 0116.48-22.562 1.238 1.238 0 11.757 2.36 21.146 21.146 0 00-14.75 20.203c0 11.693 9.528 21.21 21.24 21.21 3.134 0 6.151-.665 8.965-1.976a1.244 1.244 0 011.649.6 1.24 1.24 0 01-.601 1.649A23.55 23.55 0 0123.724 95z" fill="#20201D"/></svg>