<svg width="118" height="95" fill="none" xmlns="http://www.w3.org/2000/svg"><path d="M68.21 37.05a1.01 1.01 0 01-.592-.19l-10.363-7.368a1.01 1.01 0 01-.236-1.412 1.02 1.02 0 011.419-.234l9.661 6.872 15.148-15.026c.36-.36.929-.395 1.331-.09l10.926 8.256 7.381-8.85c.36-.43 1-.483 1.431-.131.433.358.492.993.132 1.424l-8.003 9.594a1.022 1.022 0 01-1.398.16l-10.995-8.308-15.13 15.009a1.01 1.01 0 01-.713.293z" fill="#009456"/><path d="M103.668 26.43a1.014 1.014 0 01-1.017-1.012v-4.755h-4.779a1.014 1.014 0 01-1.016-1.012c0-.558.455-1.011 1.016-1.011h5.796c.561 0 1.016.453 1.016 1.011v5.767c0 .558-.455 1.011-1.016 1.011z" fill="#009456"/><path d="M91.146 45.559c-.539 0-.986-.42-1.014-.961-.03-.557.4-1.034.963-1.06l4.769-.243-.244-4.75c-.03-.557.4-1.035.963-1.061.614-.063 1.04.4 1.066.959l.296 5.76a.998.998 0 01-.26.728c-.18.199-.433.318-.703.332l-5.785.296h-.051z" fill="#20201D"/><path d="M58.08 52.47c-.28 0-.557-.115-.758-.338a1.008 1.008 0 01.081-1.428L66 43.054c.364-.32.903-.342 1.287-.055l5.541 4.138 12.79-12.981c.378-.38.99-.405 1.397-.05l9.376 8.167c.423.368.466 1.005.096 1.426a1.016 1.016 0 01-1.433.095l-8.655-7.538-12.743 12.932c-.36.362-.931.4-1.336.101l-5.586-4.171-7.976 7.1a1.027 1.027 0 01-.677.252zm58.906-38.579H45.63a1.014 1.014 0 01-1.016-1.011c0-.559.455-1.012 1.016-1.012h70.339V7.435H91.036c-.384 0-.736-.216-.908-.558L87.814 2.27H57.932l-2.313 4.607a1.018 1.018 0 01-.909.558h-9.082a1.014 1.014 0 01-1.016-1.011c0-.559.455-1.012 1.016-1.012h8.454L56.395.805c.173-.342.525-.558.909-.558H88.44c.384 0 .735.216.908.558l2.313 4.607h25.322c.561 0 1.016.453 1.016 1.012v6.456a1.01 1.01 0 01-1.014 1.011z" fill="#20201D"/><path d="M113.093 60.38H50.817v-2.023h61.26V18.046h2.032V59.37c0 .559-.455 1.012-1.016 1.012z" fill="#20201D"/><path d="M73.89 59.37h-2.032v6.455h2.032V59.37z" fill="#20201D"/><path d="M72.874 77.167c-3.423 0-6.206-2.77-6.206-6.177 0-3.407 2.783-6.176 6.206-6.176 3.423 0 6.208 2.77 6.208 6.177 0 3.407-2.787 6.176-6.208 6.176zm0-10.33c-2.3 0-4.173 1.863-4.173 4.153 0 2.29 1.872 4.154 4.173 4.154 2.303 0 4.175-1.863 4.175-4.154 0-2.29-1.874-4.153-4.175-4.153zM6.206 45.514a1.014 1.014 0 01-1.017-1.011v-3.875c0-.558.456-1.011 1.017-1.011.56 0 1.016.453 1.016 1.011v3.875c0 .56-.455 1.011-1.016 1.011zM24.37 59.719H6.204a1.014 1.014 0 01-1.016-1.012v-5.165c0-.558.455-1.011 1.016-1.011.56 0 1.016.453 1.016 1.011v4.154h16.134v-19.65c0-.865-.71-1.57-1.58-1.57h-2.593a1.014 1.014 0 01-1.017-1.011c0-.559.456-1.012 1.017-1.012h2.593c1.992 0 3.612 1.613 3.612 3.593v20.661c0 .559-.453 1.012-1.016 1.012z" fill="#20201D"/><path d="M19.18 41.64H1.016A1.014 1.014 0 010 40.628v-2.581c0-1.981 1.62-3.594 3.61-3.594h18.164c.561 0 1.017.453 1.017 1.012 0 .558-.456 1.011-1.017 1.011-.87 0-1.577.707-1.577 1.57v2.582c0 .56-.455 1.012-1.017 1.012zM2.034 39.617h16.131v-1.57c0-.563.13-1.097.364-1.57H3.612c-.87 0-1.577.706-1.577 1.57v1.57h-.002zm5.271 14.937H5.108a2.51 2.51 0 01-2.512-2.5v-4.77a2.508 2.508 0 012.512-2.498h2.197a2.508 2.508 0 012.513 2.498v4.77a2.51 2.51 0 01-2.513 2.5zm-2.197-7.747a.478.478 0 00-.48.475v4.77a.48.48 0 00.48.477h2.197a.48.48 0 00.48-.478v-4.769a.478.478 0 00-.48-.475H5.108zm27.547-26.704c-5.264 0-8.8-4.039-8.8-10.052S27.392 0 32.656 0c5.265 0 8.802 4.038 8.802 10.051s-3.54 10.052-8.802 10.052zm0-18.08c-4.994 0-6.767 4.326-6.767 8.028 0 3.703 1.773 8.028 6.767 8.028 4.997 0 6.77-4.325 6.77-8.028 0-3.702-1.773-8.028-6.77-8.028zM44.33 95a1.014 1.014 0 01-1.015-1.012V39.752a1.015 1.015 0 012.032 0v54.236c0 .56-.455 1.012-1.016 1.012zm-15.568 0c-.03 0-.059-.002-.09-.004a1.013 1.013 0 01-.924-1.095l2.596-29.7a1.012 1.012 0 011.012-.925h2.594c.528 0 .967.4 1.012.925l2.594 29.7a1.013 1.013 0 01-.925 1.095c-.555.036-1.053-.364-1.1-.92L33.02 65.298h-.732l-2.514 28.776c-.045.528-.49.925-1.01.925zm-7.785 0a1.016 1.016 0 01-1.016-1.014l.04-35.23c0-.556.456-1.01 1.017-1.01h.002c.559 0 1.014.456 1.014 1.014l-.04 35.23c0 .559-.454 1.01-1.017 1.01z" fill="#20201D"/><path d="M48.87 66.59h-.646a1.014 1.014 0 01-1.017-1.012c0-.558.456-1.011 1.017-1.011h.646a.93.93 0 00.93-.929V34.502c0-4.915-3.873-8.943-8.74-9.22l-7.496 14.921a1.019 1.019 0 01-1.817 0l-7.493-14.917c-4.911.312-8.747 4.328-8.747 9.216 0 .558-.455 1.011-1.016 1.011a1.014 1.014 0 01-1.016-1.011c0-6.207 5.073-11.257 11.307-11.257.385 0 .824.216.997.558l6.874 13.687 6.877-13.687c.172-.342.524-.558.908-.558 6.32 0 11.394 5.05 11.394 11.257v29.136a2.957 2.957 0 01-2.962 2.952z" fill="#20201D"/><path d="M33.952 25.266h-2.594a1.014 1.014 0 01-1.016-1.012c0-.558.455-1.011 1.016-1.011h2.594c.56 0 1.016.453 1.016 1.011 0 .559-.453 1.012-1.016 1.012z" fill="#20201D"/><path d="M32.655 39.473a1.014 1.014 0 01-1.016-1.012V24.256c0-.558.455-1.011 1.016-1.011.561 0 1.016.453 1.016 1.011v14.205c0 .559-.455 1.012-1.016 1.012z" fill="#20201D"/></svg>